<svg xmlns="http://www.w3.org/2000/svg" version="1.1" xmlns:xlink="http://www.w3.org/1999/xlink" xmlns:svgjs="http://svgjs.com/svgjs" width="512" height="512" x="0" y="0" viewBox="0 0 100 100" style="enable-background:new 0 0 512 512" xml:space="preserve" class=""><g><path fill="#001847" fill-rule="evenodd" d="M30.208 29.167C30.208 18.236 39.07 9.375 50 9.375c10.93 0 19.792 8.861 19.792 19.792H75a8.333 8.333 0 0 1 8.333 8.333v41.667c0 6.903-5.596 12.5-12.5 12.5H29.167c-6.904 0-12.5-5.597-12.5-12.5V37.5A8.333 8.333 0 0 1 25 29.167zm6.25 0c0-7.48 6.063-13.542 13.542-13.542s13.542 6.063 13.542 13.542zm-6.25 6.25v6.25a3.125 3.125 0 1 0 6.25 0v-6.25h27.084v6.25a3.125 3.125 0 0 0 6.25 0v-6.25H75c1.15 0 2.083.932 2.083 2.083v41.667a6.25 6.25 0 0 1-6.25 6.25H29.167a6.25 6.25 0 0 1-6.25-6.25V37.5c0-1.15.932-2.083 2.083-2.083z" clip-rule="evenodd" data-original="#000000" class="" opacity="1"></path></g></svg>